<svg xmlns="http://www.w3.org/2000/svg" viewBox="0 0 900 383" width="900">
  <defs>
    <radialGradient id="paper" cx="0.5" cy="0.5" r="0.72">
      <stop offset="0" stop-color="#f1deb4"/>
      <stop offset="0.7" stop-color="#e6d09f"/>
      <stop offset="1" stop-color="#c8a972"/>
    </radialGradient>
    <radialGradient id="coin" cx="0.35" cy="0.35" r="0.75">
      <stop offset="0" stop-color="#fde9a3"/>
      <stop offset="0.55" stop-color="#f4d27a"/>
      <stop offset="1" stop-color="#c39a3a"/>
    </radialGradient>
    <radialGradient id="glow" cx="0.5" cy="0.5" r="0.6">
      <stop offset="0" stop-color="#fde9a3" stop-opacity="0.7"/>
      <stop offset="0.4" stop-color="#f4d27a" stop-opacity="0.35"/>
      <stop offset="1" stop-color="#fde9a3" stop-opacity="0"/>
    </radialGradient>
    <linearGradient id="chest" x1="0" y1="0" x2="0" y2="1">
      <stop offset="0" stop-color="#8b5a2b"/>
      <stop offset="0.5" stop-color="#6b4220"/>
      <stop offset="1" stop-color="#3e2814"/>
    </linearGradient>
  </defs>

  <rect width="900" height="383" fill="url(#paper)"/>

  <g fill="#9a6a28" opacity="0.09">
    <ellipse cx="130" cy="80" rx="80" ry="44"/>
    <ellipse cx="770" cy="300" rx="95" ry="52"/>
    <ellipse cx="700" cy="70" rx="55" ry="32"/>
    <ellipse cx="210" cy="320" rx="65" ry="36"/>
    <ellipse cx="450" cy="200" rx="120" ry="40" opacity="0.5"/>
  </g>

  <rect x="14" y="14" width="872" height="355" fill="none" stroke="#5b3a1e" stroke-width="2.5"/>
  <rect x="22" y="22" width="856" height="339" fill="none" stroke="#5b3a1e" stroke-width="0.9" stroke-dasharray="2 4"/>
  <g fill="#5b3a1e">
    <polygon points="30,20 39,29 30,38 21,29"/>
    <polygon points="870,20 879,29 870,38 861,29"/>
    <polygon points="30,345 39,354 30,363 21,354"/>
    <polygon points="870,345 879,354 870,363 861,354"/>
  </g>

  <text x="48" y="58" fill="#b8651a" font-family="'PingFang SC','Heiti SC','Hiragino Sans GB','Microsoft YaHei',sans-serif" font-size="15" font-weight="700" letter-spacing="2">No. 02</text>

  <circle cx="450" cy="120" r="85" fill="url(#glow)"/>

  <g transform="translate(450 130)">
    <path d="M -55 0 L 55 0 L 50 35 L -50 35 Z" fill="url(#chest)" stroke="#2a1a0a" stroke-width="2"/>
    <path d="M -55 0 L -50 -28 Q 0 -38 50 -28 L 55 0 Z" fill="#a87a2a" stroke="#2a1a0a" stroke-width="2"/>
    <ellipse cx="0" cy="-15" rx="6" ry="6" fill="#3e2814" stroke="#1a0e04" stroke-width="1.2"/>
    <rect x="-3" y="-15" width="6" height="14" fill="#3e2814" stroke="#1a0e04" stroke-width="1"/>
    <line x1="-55" y1="12" x2="55" y2="12" stroke="#3e2814" stroke-width="1.5" opacity="0.5"/>
    <rect x="-45" y="2" width="6" height="6" fill="#c9a86a" stroke="#5b3a1e" stroke-width="0.8"/>
    <rect x="39" y="2" width="6" height="6" fill="#c9a86a" stroke="#5b3a1e" stroke-width="0.8"/>
    <rect x="-22" y="22" width="6" height="6" fill="#c9a86a" stroke="#5b3a1e" stroke-width="0.8"/>
    <rect x="16" y="22" width="6" height="6" fill="#c9a86a" stroke="#5b3a1e" stroke-width="0.8"/>
  </g>

  <g transform="translate(450 80)">
    <circle r="22" fill="url(#coin)" stroke="#a87a2a" stroke-width="2.5"/>
    <text y="9" fill="#7a4a10" font-family="'PingFang SC','Heiti SC','Hiragino Sans GB','Microsoft YaHei',sans-serif" font-size="22" font-weight="800" text-anchor="middle">B</text>
    <line x1="-10" y1="-19" x2="-10" y2="-9" stroke="#7a4a10" stroke-width="2.5" stroke-linecap="round"/>
    <line x1="-10" y1="11" x2="-10" y2="21" stroke="#7a4a10" stroke-width="2.5" stroke-linecap="round"/>
  </g>

  <line x1="435" y1="103" x2="442" y2="118" stroke="#a87a2a" stroke-width="1.6" opacity="0.55"/>
  <line x1="465" y1="103" x2="458" y2="118" stroke="#a87a2a" stroke-width="1.6" opacity="0.55"/>

  <rect x="125" y="220" width="650" height="68" rx="8" fill="#f3e1b6" opacity="0.82"/>
  <text x="450" y="276" fill="#2d1a0a" font-family="'PingFang SC','Heiti SC','Hiragino Sans GB','Microsoft YaHei',sans-serif" font-size="62" font-weight="800" text-anchor="middle" letter-spacing="4">钱到底是什么</text>

  <text x="450" y="316" fill="#d97824" font-family="'PingFang SC','Heiti SC','Hiragino Sans GB','Microsoft YaHei',sans-serif" font-size="19" font-weight="700" text-anchor="middle" letter-spacing="2">比特币学习地图 &#183; 第二篇</text>
  <text x="450" y="342" fill="#7a5630" font-family="'PingFang SC','Heiti SC','Hiragino Sans GB','Microsoft YaHei',sans-serif" font-size="13" text-anchor="middle" letter-spacing="1">一张收据 &#183; 一场共识</text>

  <text x="450" y="365" fill="#6b4a2a" font-family="'PingFang SC','Heiti SC','Hiragino Sans GB','Microsoft YaHei',sans-serif" font-size="13" font-weight="600" text-anchor="middle" letter-spacing="6">慢 读 宝 盒</text>
</svg>
